<?xml version="1.0" encoding="UTF-8" standalone="no"?>
<!DOCTYPE svg PUBLIC "-//W3C//DTD SVG 1.1//EN" "http://www.w3.org/Graphics/SVG/1.1/DTD/svg11.dtd">
<svg version="1.1" xmlns="http://www.w3.org/2000/svg" xmlns:xlink="http://www.w3.org/1999/xlink" preserveAspectRatio="xMidYMid meet" viewBox="0 0 640 640" width="512" height="512"><defs><path d="M275.58 400.91C279.49 404.82 279.49 411.15 275.58 415.05C270.59 420.05 262.67 427.97 257.67 432.97C253.76 436.87 247.43 436.87 243.53 432.97C216.84 406.28 143.85 333.29 117.16 306.6C113.25 302.69 113.25 296.36 117.16 292.46C122.16 287.46 130.08 279.54 135.07 274.54C138.98 270.64 145.31 270.64 149.21 274.54C175.9 301.23 248.89 374.22 275.58 400.91Z" id="afY9NRg4C"></path><path d="M202.78 266.14L283.99 347.34L243.92 387.41L162.71 306.2L202.78 266.14Z" id="c4lDymBXKv"></path><path d="M522.84 473.69C526.75 477.59 526.75 483.92 522.84 487.83C512.5 498.17 488.55 522.12 478.21 532.46C474.31 536.36 467.98 536.36 464.07 532.46C403.6 471.98 229.24 297.62 168.76 237.14C164.86 233.24 164.86 226.91 168.76 223C179.1 212.66 203.05 188.72 213.39 178.38C217.29 174.47 223.62 174.47 227.53 178.38C288.01 238.85 462.36 413.21 522.84 473.69Z" id="jjk2lDup0"></path><path d="M378.69 305.27C382.88 309.47 382.88 316.28 378.69 320.48C369.52 329.64 349.63 349.53 340.47 358.69C336.27 362.89 329.46 362.89 325.26 358.69C296.12 329.55 216.29 249.72 187.14 220.58C182.95 216.38 182.95 209.57 187.14 205.37C196.31 196.21 216.2 176.32 225.36 167.15C229.56 162.96 236.37 162.96 240.57 167.15C269.71 196.3 349.54 276.13 378.69 305.27Z" id="a2YpXKedHA"></path><path d="M303.73 111.25C309.27 113.08 312.29 119.05 310.46 124.59C303.29 146.38 285.06 201.73 277.88 223.52C276.06 229.06 270.08 232.07 264.54 230.25C258.83 228.37 251.72 226.02 246.01 224.14C240.47 222.32 237.46 216.35 239.28 210.81C246.46 189.02 264.69 133.67 271.87 111.88C273.69 106.34 279.66 103.32 285.2 105.15C290.91 107.03 298.02 109.37 303.73 111.25Z" id="cNgJXNDyL"></path><path d="M567.27 57.07C572.79 57.07 577.27 61.54 577.27 67.07C577.27 170.24 577.27 469.76 577.27 572.93C577.27 578.46 572.79 582.93 567.27 582.93C466.36 582.93 173.64 582.93 72.73 582.93C67.21 582.93 62.73 578.46 62.73 572.93C62.73 469.76 62.73 170.24 62.73 67.07C62.73 61.54 67.21 57.07 72.73 57.07C173.64 57.07 466.36 57.07 567.27 57.07Z" id="d19X2BWDv8"></path></defs><g><g><g><g><use xlink:href="#afY9NRg4C" opacity="1" fill="#000000" fill-opacity="1"></use></g><g><use xlink:href="#c4lDymBXKv" opacity="1" fill="#000000" fill-opacity="1"></use></g><g><use xlink:href="#jjk2lDup0" opacity="1" fill="#000000" fill-opacity="1"></use></g><g><use xlink:href="#a2YpXKedHA" opacity="1" fill="#000000" fill-opacity="1"></use></g><g><use xlink:href="#cNgJXNDyL" opacity="1" fill="#000000" fill-opacity="1"></use></g></g><g><use xlink:href="#d19X2BWDv8" opacity="1" fill="#000000" fill-opacity="0"></use><g><use xlink:href="#d19X2BWDv8" opacity="1" fill-opacity="0" stroke="#000000" stroke-width="32" stroke-opacity="1"></use></g></g></g></g></svg>