<?xml version="1.0" standalone="no"?>
<!DOCTYPE svg PUBLIC "-//W3C//DTD SVG 20010904//EN"
 "http://www.w3.org/TR/2001/REC-SVG-20010904/DTD/svg10.dtd">
<svg version="1.0" xmlns="http://www.w3.org/2000/svg"
 width="70.000000pt" height="70.000000pt" viewBox="0 0 70.000000 70.000000"
 preserveAspectRatio="xMidYMid meet">
<metadata>
Created by potrace 1.11, written by Peter Selinger 2001-2013
</metadata>
<g transform="translate(0.000000,70.000000) scale(0.100000,-0.100000)"
fill="#000000" stroke="none">
<path d="M0 350 l0 -350 350 0 350 0 0 350 0 350 -350 0 -350 0 0 -350z m291
71 c32 -33 36 -56 15 -106 -17 -41 -60 -65 -116 -65 -38 0 -40 2 -40 31 0 51
21 119 37 119 12 0 13 -9 8 -42 -3 -24 -9 -51 -11 -60 -4 -14 1 -18 25 -18 59
0 100 104 50 131 -22 11 -80 8 -113 -6 -29 -12 -15 17 15 32 44 23 97 16 130
-16z m227 12 c2 -9 -11 -13 -46 -13 -44 0 -54 -4 -76 -31 -45 -53 -27 -134 23
-102 9 6 23 34 32 64 10 31 22 54 30 54 8 0 13 -7 11 -15 -2 -8 -6 -36 -9 -62
-5 -38 -3 -48 9 -48 8 0 19 5 26 12 20 20 26 -1 7 -22 -21 -24 -48 -26 -68 -5
-13 13 -16 13 -27 0 -13 -16 -47 -20 -67 -7 -32 21 -35 83 -5 139 24 44 148
71 160 36z"/>
</g>
</svg>
